<svg xmlns="http://www.w3.org/2000/svg" viewBox="0 0 249.7 249"><defs><style>  .cls-1{fill:#6d6d6d;}.cls-2{fill:#fb503b;}.cls-10,.cls-11,.cls-12,.cls-13,.cls-2,.cls-3,.cls-4,.cls-5,.cls-6,.cls-7,.cls-8,.cls-9{fill-rule:evenodd;}.cls-3{fill:#ed1b25;}.cls-4{fill:#ef790f;}.cls-5{fill:#1fc96f;}.cls-6{fill:#377bdd;}.cls-7{fill:#a30773;}.cls-8{fill:#f7f7f7;}.cls-9{fill:#d5d5d7;}.cls-10{fill:#5f5f5f;}.cls-11{fill:#434443;}.cls-12{fill:#22201e;}.cls-13{fill:#babcbe;}</style></defs><g data-name="Layer 2"><g data-name="Layer 1"><circle class="cls-1" cx="123.8" cy="123.2" r="14"/><path class="cls-2" d="M99.8 2.4l-8.4 79.3 114-52A125.4 125.4 0 0 0 99.8 2.5z"/><path class="cls-3" d="M83.4 6.5c-3.4 1.2-6.8 2.5-10.2 4a124.6 124.6 0 0 0-67 75l65.3 46.8z"/><path class="cls-4" d="M32.2 207.8l72.8-33L2.2 101.2a124.8 124.8 0 0 0-2.2 23v0.3a124 124 0 0 0 11 51.3 126.2 126.2 0 0 0 21 32z"/><path class="cls-5" d="M165.2 242.3c3.8-1.3 7.6-2.8 11.3-4.4a124.5 124.5 0 0 0 67.7-77.4l-65.7-45z"/><path class="cls-6" d="M149.5 246.6l8.4-79.3-114 52a125.2 125.2 0 0 0 105.5 27.3z"/><path class="cls-7" d="M248 145L145.2 74.3l72.8-33a125.6 125.6 0 0 1 20.5 31.2A124 124 0 0 1 248 145z"/><path class="cls-8" d="M78.7 55.2c-68.5 46-35.6 152.5 46 152.5S239.6 101.3 171 55.2a83.3 83.3 0 0 0-92.3 0z"/><path class="cls-9" d="M90 72c-51.8 35-27 115.4 34.8 115.4s86.7-80.5 35-115.3A63 63 0 0 0 90 72z"/><path class="cls-10" d="M97 82.7c-41.3 27.7-21.5 92 27.8 92s69.2-64.2 28-92a50.2 50.2 0 0 0-55.8 0z"/><path class="cls-11" d="M100.3 87.6c-36.5 24.5-19 81.2 24.5 81.2s61-56.7 24.6-81.2a44.3 44.3 0 0 0-49 0z"/><path class="cls-12" d="M111.2 104c-20.2 13.6-10.5 45 13.6 45s34-31.4 13.7-45a24.6 24.6 0 0 0-27.3 0z"/><path class="cls-13" d="M109.3 116.2c-9.5-6.4-5-21.3 6.5-21.3s16 14.8 6.4 21.2a11.6 11.6 0 0 1-13 0z"/></g></g></svg>
